<?xml version="1.0" encoding="UTF-8"?> <!-- Generator: Adobe Illustrator 23.0.3, SVG Export Plug-In . SVG Version: 6.00 Build 0) --> <svg xmlns="http://www.w3.org/2000/svg" xmlns:xlink="http://www.w3.org/1999/xlink" id="Layer_1" x="0px" y="0px" width="380px" height="390px" viewBox="0 0 380 390" style="enable-background:new 0 0 380 390;" xml:space="preserve"> <style type="text/css"> .st0{fill:url(#Path_307_2_);} .st1{fill:none;stroke:#E9F2F4;stroke-width:0.25;stroke-miterlimit:10;} .st2{fill:#918DFF;} .st3{fill:#FFFFFF;} .st4{fill:#E9F2F4;} .st5{fill:none;stroke:#E9F2F4;stroke-miterlimit:10;} .st6{fill:#C7C7C7;} .st7{fill:#482C3B;} .st8{fill:#A6AEBA;} .st9{fill:#D2DCEB;} .st10{fill:#FF8A95;} .st11{fill:#F74455;} .st12{fill:#FFE1BD;} .st13{fill:#133A50;} .st14{fill:none;stroke:#482C3B;stroke-width:0.25;stroke-miterlimit:10;} .st15{fill:#364469;} .st16{fill:none;stroke:#AEBFDE;stroke-width:0.25;stroke-miterlimit:10;} .st17{fill:#97A3CC;} .st18{fill:url(#Path_1028_1_);} .st19{fill:#939598;} .st20{fill:#E8C5A0;} .st21{fill:#A7A9AC;} .st22{fill:#DBDBDB;} .st23{fill:#FFD04D;} </style> <g id="Group_449_1_" transform="translate(-84.903 -1481.601)"> <linearGradient id="Path_307_2_" gradientUnits="userSpaceOnUse" x1="86.652" y1="1871.9526" x2="86.652" y2="1870.9526" gradientTransform="matrix(325.4619 -34.3452 -37.3115 -353.571 41889.8281 666338.625)"> <stop offset="0" style="stop-color:#A8C849"></stop> <stop offset="1" style="stop-color:#37A354"></stop> </linearGradient> <path id="Path_307_1_" class="st0" d="M300.9,1496.2c54.6-31.2,119.5,3.3,115.9,63.3c-3.7,59.9-62.5,33-19.3,124.8 S289.9,1903.4,176.8,1827s-77.6-193.4,6.5-229.7S246.3,1527.4,300.9,1496.2z"></path> <g id="Group_802" transform="translate(108.716 1246.803)"> <g id="Group_780" transform="translate(54.713 319.473)"> <g id="Group_779"> <line id="Line_120" class="st1" x1="6.6" y1="31.5" x2="6.6" y2="47.2"></line> <g id="Group_773" transform="translate(0 26.942)"> <path id="Path_979" class="st2" d="M14.4,3.5c0,4.3-3.5,7.8-7.8,7.8c-4.3,0-7.8-3.5-7.8-7.8c0-4.3,3.5-7.8,7.8-7.8c0,0,0,0,0,0 C10.9-4.3,14.4-0.8,14.4,3.5C14.4,3.5,14.4,3.5,14.4,3.5z"></path> </g> <line id="Line_121" class="st1" x1="6.6" y1="5.9" x2="6.6" y2="21.1"></line> <g id="Group_775"> <path id="Path_980" class="st2" d="M14.4,3.5c0,4.3-3.5,7.8-7.8,7.8c-4.3,0-7.8-3.5-7.8-7.8c0-4.3,3.5-7.8,7.8-7.8c0,0,0,0,0,0 C10.9-4.3,14.4-0.8,14.4,3.5z"></path> <g id="Group_774" transform="translate(3.592 1.64)"> <path id="Path_981" class="st3" d="M2.4,5.6l-3.6-4.7L2,2.3l7.6-6.6L2.4,5.6z"></path> </g> </g> <g id="Group_776" transform="translate(0 54.407)"> <path id="Path_982" class="st2" d="M14.4,3.5c0,4.3-3.5,7.8-7.8,7.8c-4.3,0-7.8-3.5-7.8-7.8c0-4.3,3.5-7.8,7.8-7.8c0,0,0,0,0,0 C10.9-4.3,14.4-0.8,14.4,3.5z"></path> </g> <g id="Group_777" transform="translate(3.592 27.963)"> <path id="Path_983" class="st3" d="M2.4,5.6l-3.6-4.7L2,2.3l7.6-6.6L2.4,5.6z"></path> </g> <g id="Group_778" transform="translate(3.592 55.734)"> <path id="Path_984" class="st3" d="M2.4,5.6l-3.6-4.7L2,2.3l7.6-6.6L2.4,5.6z"></path> </g> </g> <rect id="Rectangle_507" x="19" y="-1.9" class="st2" width="32" height="4.3"></rect> <rect id="Rectangle_508" x="19" y="4.3" class="st4" width="56" height="12.1"></rect> <rect id="Rectangle_509" x="19" y="31.1" class="st4" width="56" height="12.1"></rect> <rect id="Rectangle_510" x="19" y="58.3" class="st4" width="56" height="12.1"></rect> <rect id="Rectangle_511" x="19" y="25.3" class="st2" width="32" height="4.3"></rect> <rect id="Rectangle_512" x="19" y="52.2" class="st2" width="32" height="4.3"></rect> </g> <g id="Group_781" transform="translate(151.542 322.539)"> <line id="Line_122" class="st5" x1="-1.3" y1="-4.3" x2="62.6" y2="-4.3"></line> <line id="Line_123" class="st5" x1="-1.3" y1="0.1" x2="62.6" y2="0.1"></line> <line id="Line_124" class="st5" x1="-1.3" y1="4.4" x2="62.6" y2="4.4"></line> <line id="Line_125" class="st5" x1="-1.3" y1="8.8" x2="62.6" y2="8.8"></line> <line id="Line_126" class="st5" x1="-1.3" y1="13.2" x2="62.6" y2="13.2"></line> <line id="Line_127" class="st5" x1="-1.3" y1="17.6" x2="62.6" y2="17.6"></line> <line id="Line_128" class="st5" x1="-1.3" y1="23.4" x2="62.6" y2="23.4"></line> <line id="Line_129" class="st5" x1="-1.3" y1="27.7" x2="62.6" y2="27.7"></line> <line id="Line_130" class="st5" x1="-1.3" y1="32" x2="62.6" y2="32"></line> <line id="Line_131" class="st5" x1="-1.3" y1="36.2" x2="62.6" y2="36.2"></line> </g> <g id="Group_796" transform="translate(42.492 378.407)"> <g id="Group_782" transform="translate(38.453 126.161)"> <path id="Path_985" class="st6" d="M-1.3,96.3h2.5L21.9-4.3h-5.2L-1.3,96.3z"></path> </g> <g id="Group_788" transform="translate(6.859 33.228)"> <path id="Path_986" class="st7" d="M27,28c-0.8,0.9-1.4,2.1-1.6,3.3c0.3-0.9,0.9-1.7,1.7-2.3c1-0.7,2.4-0.6,3.5-1.2 c0.9-0.7,1.6-1.7,1.9-2.8c-0.8,0.7-1.7,1.2-2.7,1.6C28.7,26.8,27.8,27.3,27,28z"></path> <g id="Group_785" transform="translate(0 46.712)"> <g id="Group_784" transform="translate(18.906 79.567)"> <g id="Group_783" transform="translate(0 0)"> <rect id="Rectangle_513" x="17" y="14.4" class="st8" width="3.8" height="37.2"></rect> <rect id="Rectangle_514" x="15.8" y="9" class="st9" width="6.2" height="5.4"></rect> <rect id="Rectangle_515" x="16.5" y="37.3" class="st9" width="4.7" height="11.6"></rect> <rect id="Rectangle_516" x="15.8" y="48.9" class="st9" width="6.2" height="5.4"></rect> <rect id="Rectangle_517" x="11.4" y="-1.3" class="st8" width="15" height="10.3"></rect> <path id="Rectangle_518" class="st8" d="M40.1,3.4h-41c-0.2,0-0.4-0.2-0.4-0.4V-4c0-0.2,0.2-0.4,0.4-0.4h41 c0.2,0,0.4,0.2,0.4,0.4V3C40.5,3.2,40.3,3.4,40.1,3.4z"></path> <path id="Path_987" class="st8" d="M4,59.5l11.8-5.8v-4.1L2.5,58.6L4,59.5z"></path> <path id="Path_988" class="st8" d="M-0.3,60.7c0,1.5,1.2,2.8,2.8,2.8s2.8-1.2,2.8-2.8c0-1.5-1.2-2.8-2.8-2.8c0,0,0,0,0,0 C0.9,57.9-0.3,59.2-0.3,60.7z"></path> <path id="Path_989" class="st8" d="M16.1,60.7c0,1.5,1.2,2.8,2.8,2.8s2.8-1.2,2.8-2.8s-1.2-2.8-2.8-2.8h0 C17.4,57.9,16.1,59.2,16.1,60.7z"></path> <path id="Path_990" class="st8" d="M33.8,59.5L22,53.7v-4.1l13.3,8.9L33.8,59.5z"></path> <path id="Path_991" class="st8" d="M38.1,60.7c0,1.5-1.2,2.8-2.8,2.8s-2.8-1.2-2.8-2.8s1.2-2.8,2.8-2.8c0,0,0,0,0,0 C36.8,57.9,38.1,59.2,38.1,60.7z"></path> <rect id="Rectangle_519" x="18.1" y="51.6" class="st8" width="1.5" height="9"></rect> </g> </g> <path id="Path_992" class="st10" d="M10.7,79.4c-1.4,0-2.6-0.9-2.9-2.2c-1-4.2-2.8-11.9-2.9-31.3c0-21.4-4.5-37.7-6-44.6 C-1.6-0.6-0.7-2.6,1-3.5l0,0c0.9-0.5,2-0.8,3-0.8h37.2c0,0,15.3,27.4,17.3,36.8s4.8,45.4,4.8,45.4L10.7,79.4z"></path> <path id="Path_993" class="st11" d="M11.9,79.5c0,0-3.5-6.8-3.5-33.6c0-22.1-4.4-40.3-5.7-47.3c-0.2-1.3,0.6-2.6,2-2.9 c0.1,0,0.3,0,0.4,0h39.6C44.7-4.3,60,23,62,32.4c2,9.4,4.8,45.4,4.8,45.4L11.9,79.5z"></path> <path id="Rectangle_520" class="st10" d="M48,79.5H9.3c-0.5,0-0.9-0.4-0.9-0.9c0,0,0,0,0,0v-7.3l0,0H48l0,0V79.5L48,79.5z"></path> <path id="Rectangle_521" class="st11" d="M74.6,79.5h-57l0,0v-7c0-0.6,0.5-1.1,1.1-1.1h55.9c0.6,0,1.1,0.5,1.1,1.1c0,0,0,0,0,0 v5.9C75.8,79,75.3,79.5,74.6,79.5z"></path> </g> <path id="Path_994" class="st12" d="M23.3,33c0,0,5.8-1.8,6.3-4.3c0.5-2,1.2-8.4,1.2-8.4h10c0,0-0.4,5.6,0,7.5 c1,4.5,6.7,6,6.7,6L48.3,48L33.5,60.4L19.2,46.1L23.3,33z"></path> <path id="Path_995" class="st12" d="M46.2,4.8c2.5,3.4,2,3.9,1.7,8.5c-0.2,3.3-0.9,6.5-2,9.6c-0.7,1.8-4.3,9.3-10.6,6.5 c-3.5-1.5-7.5-5.3-8.7-7.9c-0.9-2.7-1.4-5.6-1.4-8.5c-0.1-3.1-0.1-7.1,0-9.4C25.7-4.5,41.6-1.4,46.2,4.8z"></path> <g id="Group_786" transform="translate(15.871 37.286)"> <path id="Path_996" class="st13" d="M46.7,55.7c4.2,3.9,16.5,10.5,14,18.6l-16.5,7c0,0-16.8-6.1-21.9-18l-5.1-12l11.1-4.4 L46.7,55.7z"></path> <path id="Path_997" class="st12" d="M46.7,21.7c0.7,3.3,1.8,6.4,3.2,9.4c1.3,2.3,28.4,12.3,28.4,12.3H62.5c0,0-15.1-2-19.3-7.7 c-3.1-4.4-5.9-9.1-8.3-14L46.7,21.7z"></path> <path id="Path_998" class="st13" d="M37-1.5c2.8,1.2,5.4,8.3,7.5,14.3s2.2,8.9,2.2,8.9s-7.2,4.1-11.1,3.1 c0,0-3.6-13.1-1.1-19.7L37-1.5z"></path> <path id="Path_999" class="st13" d="M23,56.1c7.9-0.3,15.8-0.5,23.7-0.5c-3.8-2.5-7.2-4.2-8-5c-1.6-1.6-1.1-16.3,0.1-20.8 s1.1-9.8,0.3-12.2S37-1.5,37-1.5l-5.3-2c0,0,1.6,12.3-11.3,12.3c-12.9,0-13-13.1-13-13.1l-8.2,1.8c0,0-0.6,16-0.3,23.2 s3.8,19.8,4.7,26.4c0.8,5.1-0.7,8.2-1.6,12C8.5,56.5,15.7,55.9,23,56.1z"></path> <path id="Path_1000" class="st12" d="M46.9,146.7c0,0,1.2,5,8.8,5.3l1.8,3.2l-5.9,2.1l-7.7-4.9l-0.2-3.7L46.9,146.7z"></path> <path id="Path_1001" class="st11" d="M60.9,155c0.3-0.6,0.2-1.5-0.1-1.7c-1-0.5-2.1-0.9-3.2-1.2c-1-0.3-2.5-0.4-1.9-0.2 s-0.3,1.3-1.1,1.4c-3,0.3-5.5-1.3-7.2-1.4c-2.5-0.2-3.5-2.8-3.6-3.2c-0.8,1.1-1.4,2.2-1.8,3.5c-0.2,0.8-0.2,1.7,0,2.5 c0.4,0.7,0.6,1.5,0.6,2.3c0.6,0.2,1.2,0.3,1.9,0.3c0.6,0,1.3-0.1,1.9-0.3v-1.5c0.5-0.1,1-0.1,1.5-0.1c0.9,0.1,1.7,0.4,2.5,0.9 c0.4,0.3,0.8,0.8,1.3,1c1.3,0.4,2.6,0.5,4,0.3C58.7,157.3,60.5,156.1,60.9,155z"></path> <path id="Path_1002" class="st12" d="M13.5,139.3c0,0-0.5,5.2,6.6,7.9l0.7,3.7l-6.3,0.1l-5.7-7.1l1-3.6L13.5,139.3z"></path> <path id="Path_1003" class="st11" d="M24,151.8c0.5-0.5,0.7-1.3,0.4-1.6c-0.8-0.8-1.7-1.5-2.6-2.2c-0.8-0.6-2.2-1.2-1.8-0.8 s-0.7,1.2-1.5,1c-2.9-0.7-4.8-3-6.4-3.7c-2.3-1-2.4-3.8-2.4-4.3c-1.1,0.7-2.1,1.7-2.8,2.7c-0.5,0.7-0.7,1.5-0.8,2.4 c0.1,0.8,0,1.6-0.2,2.4c0.5,0.4,1,0.7,1.6,0.9c0.6,0.2,1.2,0.3,1.9,0.4l0.5-1.4c0.5,0.1,1,0.2,1.5,0.4c0.8,0.4,1.5,0.9,2.1,1.6 c0.3,0.4,0.5,1.1,0.9,1.3c1.1,0.8,2.3,1.3,3.6,1.6C21.2,153.2,23.2,152.6,24,151.8z"></path> <path id="Path_1004" class="st13" d="M34.6,66.2c3,2.2,11.2,5.8,9.6,15.1c-0.8,4.8-14.3,33.5-21.6,45.6 c-3.7,6.2-8.5,14.9-8.5,14.9H7.8c0,0,3-10,6.3-24.5c3.3-14.4,12.8-31.7,12.8-31.7c-3.9-2.6-8-5-12.3-7.1 c-5.3-2.3-8.1-3.2-0.2-10.8S28.7,61.9,34.6,66.2z"></path> <path id="Path_1005" class="st13" d="M46.9,63.3c5.5-1.2,8.5,0.6,11.8,4.5s2,13.5,0,21.3s-9.5,60.4-9.5,60.4h-5.6 c0,0-1.4-20.7-2.4-35.8S43.6,77,43.6,77L22.3,63.3C22.3,63.3,42,64.3,46.9,63.3z"></path> </g> <path id="Path_1006" class="st12" d="M66.5,79.4c-2.4-0.3-4.6-2.5-13.8-2.6c-5.2-0.7-10.3-1.7-15.4-3c-3.1-0.8-6-2.1-8.7-3.8 c0,0-3.3-12.5-4.6-20.4c-3.7-0.4-7.4-0.9-11.1-1.5c-0.1,9.9,6.9,27.5,9.2,29.2c4.5,3.4,15.2,3.2,17.8,3.3 c5.9,0.1,31.2,0.8,31.2,0.8S73.1,80.2,66.5,79.4z"></path> <path id="Path_1007" class="st13" d="M27,62.2c0,0-3.4-19.8-4.3-21.8c-5-10.7-12-5-10.9,3.3c0.4,3.5,0.7,12.7,2.5,21.3 C18.6,65.1,23,64.1,27,62.2z"></path> <g id="Group_787" transform="translate(37.242 50.959)"> <path id="Path_1008" class="st8" d="M23.9,30.5h10l10-34.9h-7.6L23.9,30.5z"></path> <path id="Path_1009" class="st9" d="M26.8,30.5h38.9l10-34.9H36.7L26.8,30.5z"></path> <rect id="Rectangle_522" x="21" y="29.7" class="st9" width="44.6" height="2.6"></rect> <rect id="Rectangle_523" x="-1.3" y="29.7" class="st8" width="22.3" height="2.6"></rect> <path id="Path_1010" class="st8" d="M48.1,14.8c-1.1,2.7-0.3,5.5,1.8,6.4s4.7-0.6,5.8-3.2s0.3-5.5-1.8-6.4S49.2,12.1,48.1,14.8 z"></path> </g> <path id="Path_1011" class="st13" d="M17.8,96.4c-1.5,7.1,2,22.5,25,26.5l13.1,5.3c3.2-3.9,4.5-9,3.6-14 c-1.6-8.1-10.8-11.2-16.9-21c0,0-9.5-4-15.6-1.9C23.6,92.5,20.5,94.2,17.8,96.4z"></path> <path id="Path_1012" class="st7" d="M48.2,9.6c0,0-2.8,0.1-6.2-5c0,0,0.4,2.3-2.9,5.4s-6.3,2.3-6.8,3.8 c-0.3,0.9-0.5,1.9-0.5,2.9c0,0-0.6,0-1.1-0.8c-0.4-0.5-0.5-1.8-1.1-2.2c-1.5-1-4.1,0.3-3.3,3.3c0.5,1.3,1.4,2.3,2.5,3.1 c0,5,2,6.6,2,6.6s-3.4,1.5-5.1,0.8c-2.5-1-3.1-2.6-3-5.4c-1.2-0.2-2.4-0.8-3.3-1.7C15.9,16.8,19.8,7,21.4,5.8c0,0-3.8-5.4,1-9 c4.8-3.7,6.7,2.3,6.7,2.3c1.6-1.2,8.2-1.6,11.5-0.4C50.1,2.3,48.2,9.6,48.2,9.6z"></path> <path id="Path_1013" class="st14" d="M41.8,4.5c0.3,1.9,0,6.4-5.1,9.8"></path> </g> <g id="Group_789" transform="translate(115.042 24.509)"> <path id="Path_1014" class="st15" d="M5.9-2.8l-7.1,16.6l1.8,0.8L7.7-2c0.1-0.2,0-0.4-0.2-0.5c0,0,0,0,0,0L6.4-3 C6.2-3.1,6-3,5.9-2.8z"></path> <path id="Path_1015" class="st15" d="M5.9,1.2L4.7,0.7l2-4.6c0.1-0.3,0.5-0.5,0.9-0.3l0,0c0.3,0.1,0.5,0.5,0.3,0.9L5.9,1.2z"></path> </g> <g id="Group_793" transform="translate(101.053)"> <path id="Path_1016" class="st12" d="M41.7,56.5c0,0-7,19.3-9.6,19.2C30.2,75.6,17.3,58.1,15.3,55S9.2,44.8,9.2,44.8l5.2-1.6 c0,0,9,10.8,11.3,12.8s3.3,2.7,3.3,2.7l2.7-7.3L41.7,56.5z"></path> <path id="Path_1017" class="st15" d="M37.8,36.4c-2.8,0.8-3.8,3.3-5,8.5c-0.8,3.4-1.8,6.8-3,10.1l9.3,4.3c0,0,1.7-9.2,2.3-15.1 S40.3,35.7,37.8,36.4z"></path> <path id="Path_1018" class="st13" d="M73,211.6v6.8H59.9c0,0,0.5-2.5,6.7-3.6l0.9-3.2L73,211.6z"></path> <path id="Path_1019" class="st13" d="M45.2,211.6v6.8H32.1c0,0,0.5-2.5,6.7-3.6l0.9-3.2L45.2,211.6z"></path> <path id="Path_1020" class="st13" d="M67.3,91.8c0,0,6.7,18.8,1,50.3c3.2,21.8,5.8,69.5,5.8,69.5h-9.4c0,0-9.7-67-13.3-82 s-7.6-38-7.6-38L67.3,91.8z"></path> <path id="Path_1021" class="st13" d="M49.6,114c0,0-0.7,11.9-4.8,31.3c3.2,20.2,2.7,66.2,2.7,66.2s-8.8,0.2-8.8,0 s-8.3-59.5-9.4-76.7c-0.7-10.2,0-20.4,2-30.3c0.4-2.8,5-13.1,5-13.1l7.4,2.3L49.6,114z"></path> <path id="Path_1022" class="st4" d="M60.7,31.9l16.1,6.9c0,0-6.8,16-6.9,21.1s-1.3,37.6-1.3,37.6s-2.1,6-25.8,3 c-9.2-1.2-8.6-4.6-8.6-4.6s0.4-38.9,1.1-44.1s2.5-15.5,2.5-15.5l9.7-3.3l3.2,2.7L60.7,31.9z"></path> <path id="Path_1023" class="st16" d="M46.6,93.6"></path> <path id="Path_1024" class="st16" d="M48.6,38.6"></path> <path id="Path_1025" class="st15" d="M58.9,30.3l-8.2,5.3L52,39l8.7-7.1L58.9,30.3z"></path> <path id="Path_1026" class="st15" d="M50.8,35.6l-3,3.1L47.1,33l1.5-2L50.8,35.6z"></path> <g id="Group_790" transform="translate(0 37.727)"> <path id="Path_1027" class="st17" d="M30.6,29l-13.7,4c-1.4,0.4-3-0.3-3.7-1.6L-0.1,2.8c-0.5-1-0.1-2.3,0.9-2.9 C1-0.2,1.1-0.2,1.3-0.3l13.6-4c2.5-0.2,3.7,0.2,4.3,1.6l13.4,28.3C33.3,26.9,33,27.9,30.6,29z"></path> <linearGradient id="Path_1028_1_" gradientUnits="userSpaceOnUse" x1="-150.8363" y1="203.4079" x2="-149.7473" y2="203.4178" gradientTransform="matrix(32.8942 0 0 -37.6263 5365.7202 7663.978)"> <stop offset="0" style="stop-color:#EEF4FB"></stop> <stop offset="0.311" style="stop-color:#E3EDF8"></stop> <stop offset="1" style="stop-color:#CFE1F3"></stop> </linearGradient> <path id="Path_1028" class="st18" d="M29.9,29.3l-13.8,4c-1.5,0.4-3-0.3-3.7-1.6L-1,3c-0.5-1.1-0.1-2.3,0.9-2.9 C0.1,0,0.2,0,0.4-0.1l13.7-4c1.5-0.4,3.1,0.3,3.8,1.6l13.5,28.6c0.5,1.1,0.1,2.5-1,3C30.2,29.2,30,29.3,29.9,29.3z"></path> </g> <g id="Group_791" transform="translate(18.825 40.404)"> <path id="Path_1029" class="st12" d="M50.9,18.9c0,0-12.8,21.2-14.5,21.9S12.7,27.2,8.6,24.6S1,19.3,0.4,18.8s-1.7-4.7-1.7-4.7 c0.2-0.2,0.4-0.5,0.6-0.8l0.5,0.3l-0.3-1.7l0.5-1l0.5,0.2l0.2-1.7l0.8-1.3c0,0,2.2,2.5,3.5,3.9c0.9,0.9,1.9,1.8,2.9,2.6 c-0.1-0.9-0.1-1.9,0-2.8c0-0.7-0.1-1.4-0.2-2.1L9.8,11c0,0,1.9,5.9,2.2,6.4c1.2,2.8,3.5,5.1,6.4,6.1c9.1,3.5,14.2,4.8,14.2,4.8 c-0.4-0.1,8.3-15.8,8.3-15.8L50.9,18.9z"></path> <path id="Path_1030" class="st15" d="M58.5,6.5c-1.2,5.8-9.7,18.4-9.7,18.4l-10.4-7.8c0,0,4.1-8.1,6.3-12.4 C47.3,0,49.7-5.7,54.1-4C58.4-2.4,59.5,1.9,58.5,6.5z"></path> </g> <g id="Group_792" transform="translate(40.985)"> <path id="Path_1031" class="st19" d="M-0.7,2.4C-1.1,3.7-1,5-0.3,6.1l4.6-6.2l-3.2,0L-0.7,2.4z"></path> <path id="Path_1032" class="st12" d="M24.2,10.6c-0.2,8-7.1,12.6-7.1,12.6l0.5,7.3l-4.6,3l-3.2,2.1l-1.8-3.8l-0.3-4.7 c-0.1-1.1-0.8-2-1.9-2.2c-1.8-0.4-3.3-1.4-4.5-2.7C1,22,1,21.9,0.9,21.8l0,0C-2.2,17.6-3.3,1.9,7-2.6 C17.7-7.3,24.4,2.6,24.2,10.6z"></path> <path id="Path_1033" class="st20" d="M12.6,29.2l0.3,4.4l-3.2,2.1l-1.8-3.8l-0.3-4.7c-0.1-1.1-0.8-2-1.9-2.2 c-1.8-0.4-3.3-1.4-4.5-2.7C1,22,0.9,21.9,0.9,21.8c2,1.1,4.2,1.8,6.5,2C10.2,24.1,12.4,26.3,12.6,29.2z"></path> <path id="Path_1034" class="st21" d="M13,13.1c0.4,0.2,0.8-0.5,0.8-0.5s2.2-5,3-5.8c1.4-1.4,4.6-1.3,4.9,3.1 c0.2,3.3-3.7,10.5-5,12.6c-0.2,0.3-0.1,0.8,0.2,1c0.1,0.1,0.3,0.1,0.4,0.2h0.1c0.2,0,0.4-0.1,0.5-0.2c2.6-2.2,13.8-13,4.9-23.2 c0,0-7.1,0.5-8.2,3.9c-0.8,2.7-1.4,5.3-1.9,8.1C12.8,12.2,12.6,12.9,13,13.1z"></path> <path id="Path_1035" class="st21" d="M-0.7,2.4c0,0,6.2-4.8,15.6,1.1l7.7-2c0,0,0.3-0.1,0.2-1.3S17.4-5.1,9.9-4.2 C2.1-3.2,0.2-1.9-0.7,2.4z"></path> </g> </g> <g id="Group_795" transform="translate(0 121.118)"> <rect id="Rectangle_524" x="-1.3" y="-4.3" class="st22" width="209.7" height="5"></rect> <g id="Group_794" transform="translate(28.004 5.043)"> <path id="Path_1036" class="st22" d="M-1.3,96.3h2.5L21.9-4.3h-5.2L-1.3,96.3z"></path> <path id="Path_1037" class="st22" d="M139.5,96.3H137L116.3-4.3h5.2L139.5,96.3z"></path> </g> <path id="Path_1038" class="st6" d="M177.9,101.3h-2.5L154.8,0.7h5.2"></path> </g> </g> <g id="Group_801" transform="translate(227.637 359.204)"> <rect id="Rectangle_525" x="-1.3" y="4" class="st4" width="44.2" height="43.7"></rect> <rect id="Rectangle_526" x="5.4" y="10.7" class="st3" width="15.5" height="31.2"></rect> <rect id="Rectangle_527" x="-1.3" y="-4.3" class="st5" width="44.2" height="8.4"></rect> <g id="Group_797" transform="translate(27.856 14.604)"> <path id="Path_1039" class="st23" d="M9.7,1.2c0,3-2.5,5.5-5.5,5.5c-3,0-5.5-2.5-5.5-5.5c0-3,2.5-5.5,5.5-5.5 C7.3-4.3,9.7-1.9,9.7,1.2C9.7,1.2,9.7,1.2,9.7,1.2z"></path> </g> <g id="Group_798" transform="translate(30.375 15.321)"> <path id="Path_1040" class="st3" d="M1.3,2.6l-2.5-3.3l2.3,1l5.3-4.6L1.3,2.6z"></path> </g> <g id="Group_799" transform="translate(27.856 30.905)"> <path id="Path_1041" class="st23" d="M9.7,1.2c0,3-2.5,5.5-5.5,5.5s-5.5-2.5-5.5-5.5c0-3,2.5-5.5,5.5-5.5 C7.3-4.3,9.7-1.9,9.7,1.2C9.7,1.2,9.7,1.2,9.7,1.2z"></path> </g> <g id="Group_800" transform="translate(30.375 31.622)"> <path id="Path_1042" class="st3" d="M1.3,2.6l-2.5-3.3l2.3,1l5.3-4.6L1.3,2.6z"></path> </g> </g> </g> </g> </svg> 